<?xml version="1.0" encoding="UTF-8"?>
<svg width="32px" height="32px" viewBox="0 0 32 32" version="1.1" xmlns="http://www.w3.org/2000/svg" xmlns:xlink="http://www.w3.org/1999/xlink">
    <!-- Generator: Sketch 52.4 (67378) - http://www.bohemiancoding.com/sketch -->
    <title>svg/icon/aeur</title>
    <desc>Created with Sketch.</desc>
    <defs>
        <linearGradient x1="50%" y1="0%" x2="50%" y2="100%" id="linearGradient-1">
            <stop stop-color="#FFFFFF" stop-opacity="0.5" offset="0%"></stop>
            <stop stop-color="#000000" stop-opacity="0.5" offset="100%"></stop>
        </linearGradient>
        <circle id="path-2" cx="16" cy="15" r="15"></circle>
        <filter x="-5.8%" y="-4.2%" width="111.7%" height="111.7%" filterUnits="objectBoundingBox" id="filter-3">
            <feOffset dx="0" dy="0.5" in="SourceAlpha" result="shadowOffsetOuter1"></feOffset>
            <feGaussianBlur stdDeviation="0.5" in="shadowOffsetOuter1" result="shadowBlurOuter1"></feGaussianBlur>
            <feComposite in="shadowBlurOuter1" in2="SourceAlpha" operator="out" result="shadowBlurOuter1"></feComposite>
            <feColorMatrix values="0 0 0 0 0   0 0 0 0 0   0 0 0 0 0  0 0 0 0.199473505 0" type="matrix" in="shadowBlurOuter1"></feColorMatrix>
        </filter>
        <linearGradient x1="50%" y1="0%" x2="50%" y2="66%" id="linearGradient-4">
            <stop stop-color="#FFFFFF" offset="0%"></stop>
            <stop stop-color="#FFFFFF" stop-opacity="0.83" offset="3%"></stop>
            <stop stop-color="#FFFFFF" stop-opacity="0.66" offset="7%"></stop>
            <stop stop-color="#FFFFFF" stop-opacity="0.5" offset="11%"></stop>
            <stop stop-color="#FFFFFF" stop-opacity="0.37" offset="15%"></stop>
            <stop stop-color="#FFFFFF" stop-opacity="0.25" offset="19%"></stop>
            <stop stop-color="#FFFFFF" stop-opacity="0.16" offset="25%"></stop>
            <stop stop-color="#FFFFFF" stop-opacity="0.09" offset="30%"></stop>
            <stop stop-color="#FFFFFF" stop-opacity="0.04" offset="37%"></stop>
            <stop stop-color="#FFFFFF" stop-opacity="0.01" offset="47%"></stop>
            <stop stop-color="#FFFFFF" stop-opacity="0" offset="100%"></stop>
        </linearGradient>
        <linearGradient x1="50%" y1="0%" x2="50%" y2="100%" id="linearGradient-5">
            <stop stop-color="#FFFFFF" offset="0%"></stop>
            <stop stop-color="#FFFFFF" stop-opacity="0.83" offset="3%"></stop>
            <stop stop-color="#FFFFFF" stop-opacity="0.66" offset="7%"></stop>
            <stop stop-color="#FFFFFF" stop-opacity="0.5" offset="11%"></stop>
            <stop stop-color="#FFFFFF" stop-opacity="0.37" offset="15%"></stop>
            <stop stop-color="#FFFFFF" stop-opacity="0.25" offset="19%"></stop>
            <stop stop-color="#FFFFFF" stop-opacity="0.16" offset="25%"></stop>
            <stop stop-color="#FFFFFF" stop-opacity="0.09" offset="30%"></stop>
            <stop stop-color="#FFFFFF" stop-opacity="0.04" offset="37%"></stop>
            <stop stop-color="#FFFFFF" stop-opacity="0.01" offset="47%"></stop>
            <stop stop-color="#FFFFFF" stop-opacity="0" offset="66%"></stop>
        </linearGradient>
    </defs>
    <g id="icon/aeur" stroke="none" stroke-width="1" fill="none" fill-rule="evenodd">
        <g id="Oval" fill-rule="nonzero">
            <use fill="black" fill-opacity="1" filter="url(#filter-3)" xlink:href="#path-2"></use>
            <use fill="#051D2D" xlink:href="#path-2"></use>
            <use fill="url(#linearGradient-1)" style="mix-blend-mode: soft-light;" xlink:href="#path-2"></use>
            <circle stroke-opacity="0.0970052083" stroke="#000000" stroke-width="1" stroke-linejoin="square" cx="16" cy="15" r="14.5"></circle>
        </g>
        <g id="augmint" transform="translate(6.000000, 5.000000)" fill-rule="nonzero">
            <path d="M10.0516923,20.083299 C4.58526282,20.083299 0.153846154,15.6290399 0.153846154,10.134433 C0.153846154,4.63982603 4.58526282,0.18556701 10.0516923,0.18556701 C15.5181218,0.18556701 19.9495385,4.63982603 19.9495385,10.134433 C19.9427572,15.6262141 15.5153105,20.0764828 10.0516923,20.083299 Z M10.0516923,10.0738144 C10.0273001,10.0738144 10.0053098,10.0885837 9.99597527,10.1112353 C9.98664078,10.1338869 9.99180045,10.15996 10.0090483,10.1772968 C10.0262962,10.1946336 10.0522356,10.1998198 10.0747711,10.1904372 C10.0973065,10.1810546 10.112,10.1589509 10.112,10.134433 C10.1086812,10.1024376 10.0835236,10.0771503 10.0516923,10.0738144 Z" id="Shape" fill="url(#linearGradient-4)"></path>
            <path d="M10.0516923,29.9802062 C4.58526282,29.9802062 0.153846154,25.5259472 0.153846154,20.0313402 C0.153846154,14.5367332 4.58526282,10.0824742 10.0516923,10.0824742 C15.5181218,10.0824742 19.9495385,14.5367332 19.9495385,20.0313402 C19.9427572,25.5231213 15.5153105,29.97339 10.0516923,29.9802062 Z M10.0516923,19.9707216 C10.0273001,19.9707216 10.0053098,19.9854909 9.99597527,20.0081425 C9.98664078,20.0307941 9.99180045,20.0568672 10.0090483,20.074204 C10.0262962,20.0915408 10.0522356,20.0967271 10.0747711,20.0873445 C10.0973065,20.0779618 10.112,20.0558581 10.112,20.0313402 C10.1086812,19.9993449 10.0835236,19.9740575 10.0516923,19.9707216 Z" id="Shape" fill="url(#linearGradient-5)"></path>
        </g>
    </g>
</svg>