<?xml version="1.0" encoding="UTF-8"?>
<svg width="32px" height="32px" viewBox="0 0 32 32" version="1.1" xmlns="http://www.w3.org/2000/svg" xmlns:xlink="http://www.w3.org/1999/xlink">
    <!-- Generator: Sketch 52.4 (67378) - http://www.bohemiancoding.com/sketch -->
    <title>svg/white/aeur</title>
    <desc>Created with Sketch.</desc>
    <defs>
        <circle id="path-1" cx="16" cy="16" r="16"></circle>
        <linearGradient x1="50%" y1="1.71527276%" x2="50%" y2="66%" id="linearGradient-3">
            <stop stop-color="#FFFFFF" stop-opacity="0" offset="0%"></stop>
            <stop stop-color="#FFFFFF" stop-opacity="0.17" offset="3%"></stop>
            <stop stop-color="#FFFFFF" stop-opacity="0.34" offset="7%"></stop>
            <stop stop-color="#FFFFFF" stop-opacity="0.5" offset="11%"></stop>
            <stop stop-color="#FFFFFF" stop-opacity="0.63" offset="15%"></stop>
            <stop stop-color="#FFFFFF" stop-opacity="0.75" offset="19%"></stop>
            <stop stop-color="#FFFFFF" stop-opacity="0.84" offset="25%"></stop>
            <stop stop-color="#FFFFFF" stop-opacity="0.91" offset="30%"></stop>
            <stop stop-color="#FFFFFF" stop-opacity="0.96" offset="37%"></stop>
            <stop stop-color="#FFFFFF" stop-opacity="0.99" offset="47%"></stop>
            <stop stop-color="#FFFFFF" offset="100%"></stop>
        </linearGradient>
    </defs>
    <g id="white/aeur" stroke="none" stroke-width="1" fill="none" fill-rule="evenodd">
        <path d="M6.54349706,28.9077128 C2.57576215,25.9959363 0,21.2987689 0,16 C0,7.163444 7.163444,0 16,0 C24.836556,0 32,7.163444 32,16 C32,21.2420005 29.4791331,25.895221 25.5835472,28.8135135 C25.8209471,27.961195 25.9483923,27.0626921 25.9495385,26.134433 C25.9495385,24.3098806 25.4609063,22.6000426 24.6080015,21.1299194 C25.458979,19.6619618 25.9472899,17.9554558 25.9495385,16.134433 C25.9495385,10.639826 21.5181218,6.18556701 16.0516923,6.18556701 C10.5852628,6.18556701 6.15384615,10.639826 6.15384615,16.134433 C6.15384615,17.9571185 6.64147882,19.6653242 7.49276614,21.134433 C6.64147882,22.6035418 6.15384615,24.3117475 6.15384615,26.134433 C6.15384615,27.0968965 6.28981452,28.0274392 6.54349706,28.9077128 Z M16.0193788,16.1856189 C16.0156912,16.1832664 16.0122226,16.1804874 16.0090483,16.1772968 C15.9918005,16.15996 15.9866408,16.1338869 15.9959753,16.1112353 C16.0053098,16.0885837 16.0273001,16.0738144 16.0516923,16.0738144 C16.0835236,16.0771503 16.1086812,16.1024376 16.112,16.134433 C16.112,16.1554175 16.1012365,16.1746335 16.0840051,16.1856189 C16.0732382,16.1855843 16.0624673,16.185567 16.0516923,16.185567 C16.0409171,16.185567 16.0301459,16.1855843 16.0193788,16.1856189 Z M16.0516923,26.0738144 C16.0835236,26.0771503 16.1086812,26.1024376 16.112,26.134433 C16.112,26.1589509 16.0973065,26.1810546 16.0747711,26.1904372 C16.0522356,26.1998198 16.0262962,26.1946336 16.0090483,26.1772968 C15.9918005,26.15996 15.9866408,26.1338869 15.9959753,26.1112353 C16.0053098,26.0885837 16.0273001,26.0738144 16.0516923,26.0738144 Z M16.019384,26.0832471 C16.0301494,26.0832817 16.0409188,26.083299 16.0516923,26.083299 C16.0610128,26.0832873 16.0703303,26.0832628 16.0796447,26.0832253 C16.0713364,26.0781817 16.0618544,26.0748794 16.0516923,26.0738144 C16.0399932,26.0738144 16.0288467,26.0772119 16.019384,26.0832471 Z" id="Combined-Shape" fill="#FFFFFF" fill-rule="nonzero"></path>
        <mask id="mask-2" fill="white">
            <use xlink:href="#path-1"></use>
        </mask>
        <g id="Mask" fill-rule="nonzero"></g>
        <g id="augmint" mask="url(#mask-2)" fill="url(#linearGradient-3)" fill-rule="nonzero">
            <g transform="translate(5.000000, 6.000000)">
                <path d="M11.0568615,32.994586 C5.0437891,32.994586 0.169230769,28.1092696 0.169230769,22.0829265 C0.169230769,16.0565834 5.0437891,11.171267 11.0568615,11.171267 C17.069934,11.171267 21.9444923,16.0565834 21.9444923,22.0829265 C21.937033,28.1061703 17.0668415,32.9871102 11.0568615,32.994586 Z M11.0568615,22.0164416 C11.0300301,22.0164416 11.0058407,22.0326402 10.9955728,22.0574838 C10.9853049,22.0823275 10.9909805,22.1109239 11.0099532,22.1299384 C11.0289258,22.1489529 11.0574592,22.1546411 11.0822482,22.1443505 C11.1070372,22.1340599 11.1232,22.1098171 11.1232,22.0829265 C11.1195493,22.0478348 11.0918759,22.0201004 11.0568615,22.0164416 Z" id="Shape"></path>
                <path d="M11.0213224,22.0267871 C11.0317313,22.0201679 11.0439926,22.0164416 11.0568615,22.0164416 C11.0680399,22.0176097 11.07847,22.0212315 11.0876092,22.0267632 C11.0773633,22.0268043 11.0671141,22.0268313 11.0568615,22.026844 C11.0450107,22.026844 11.0331643,22.0268251 11.0213224,22.0267871 Z M1.64204276,16.5990555 C0.705626698,14.9877749 0.169230769,13.114259 0.169230769,11.1151846 C0.169230769,5.08884145 5.0437891,0.203525108 11.0568615,0.203525108 C17.069934,0.203525108 21.9444923,5.08884145 21.9444923,11.1151846 C21.9420189,13.1124353 21.4048768,14.9840872 20.4688016,16.5941051 C18.5872075,13.3603763 15.0939116,11.1841401 11.0924056,11.171324 C11.1113601,11.1592754 11.1232,11.1381998 11.1232,11.1151846 C11.1195493,11.0800929 11.0918759,11.0523584 11.0568615,11.0486997 C11.0300301,11.0486997 11.0058407,11.0648982 10.9955728,11.0897419 C10.9853049,11.1145856 10.9909805,11.1431819 11.0099532,11.1621965 C11.0134448,11.1656958 11.0172603,11.1687438 11.0213166,11.171324 C7.01776946,11.184147 3.52295101,13.3625977 1.64204276,16.5990555 Z" id="Combined-Shape"></path>
            </g>
        </g>
    </g>
</svg>