<?xml version="1.0" encoding="UTF-8"?>
<svg width="32px" height="32px" viewBox="0 0 32 32" version="1.1" xmlns="http://www.w3.org/2000/svg" xmlns:xlink="http://www.w3.org/1999/xlink">
    <!-- Generator: Sketch 52.4 (67378) - http://www.bohemiancoding.com/sketch -->
    <title>svg/white/ilk</title>
    <desc>Created with Sketch.</desc>
    <g id="white/ilk" stroke="none" stroke-width="1" fill="none" fill-rule="evenodd">
        <path d="M16,32 C7.163444,32 0,24.836556 0,16 C0,7.163444 7.163444,0 16,0 C24.836556,0 32,7.163444 32,16 C32,24.836556 24.836556,32 16,32 Z M6.06851852,14.5416327 L6.06851852,14.5397959 L8.72037037,14.5397959 L8.72037037,9.41897959 L12.3574074,9.41897959 L12.3574074,14.5416327 L15.0074074,14.5416327 L15.0074074,8.77979592 C15.0074074,7.70163265 14.4703704,7.16163265 13.3981481,7.16163265 L7.64259259,7.16163265 C6.59259259,7.16163265 6.06851852,7.70163265 6.06851852,8.77979592 L6.06851852,14.5416327 Z M25.9314815,23.2312245 L25.9333333,23.2312245 L25.9333333,16.325102 L23.2537037,16.325102 L19.5777778,16.325102 L16.8981481,16.325102 L16.8981481,23.2312245 C16.8981481,24.3020408 17.4277778,24.8383673 18.4888889,24.8383673 L24.3055556,24.8383673 C25.3888889,24.8383673 25.9314815,24.3020408 25.9314815,23.2312245 Z M15.0074074,23.1393878 L15.0092593,23.1393878 L15.0092593,16.2332653 L12.3592593,16.2332653 L8.72222222,16.2332653 L6.07037037,16.2332653 L6.07037037,23.1393878 C6.07037037,24.2102041 6.59444444,24.7465306 7.64444444,24.7465306 L13.3981481,24.7465306 C14.4703704,24.7465306 15.0074074,24.2102041 15.0074074,23.1393878 Z M16.8962963,16.325102 L19.6425926,16.325102 L19.6425926,9.53836735 L23.1981481,9.53836735 L23.1981481,13.0097959 L25.9314815,13.0097959 L25.9314815,8.89734694 C25.9314815,7.81918367 25.3722222,7.27918367 24.2537037,7.27918367 L18.5277778,7.27918367 C17.4407407,7.27918367 16.8962963,7.81918367 16.8962963,8.89734694 L16.8962963,16.325102 Z" id="Combined-Shape" fill="#FFFFFF" fill-rule="nonzero"></path>
        <path d="M15.0074074,23.1393878 C15.0074074,24.2102041 14.4703704,24.7465306 13.3981481,24.7465306 L7.64444444,24.7465306 C6.59444444,24.7465306 6.07037037,24.2102041 6.07037037,23.1393878 L6.07037037,16.2332653 L8.72222222,16.2332653 L12.3592593,16.2332653 L15.0092593,16.2332653 L15.0092593,23.1393878 L15.0074074,23.1393878 Z M16.8962963,16.325102 L16.8962963,8.89734694 C16.8962963,7.81918367 17.4407407,7.27918367 18.5277778,7.27918367 L24.2537037,7.27918367 C25.3722222,7.27918367 25.9314815,7.81918367 25.9314815,8.89734694 L25.9314815,13.0097959 L23.1981481,13.0097959 L23.1981481,9.53836735 L19.6425926,9.53836735 L19.6425926,16.325102 L16.8962963,16.325102 Z" id="Combined-Shape" fill="#FFFFFF" opacity="0.5"></path>
    </g>
</svg>