<?xml version="1.0" encoding="UTF-8"?>
<svg width="32px" height="32px" viewBox="0 0 32 32" version="1.1" xmlns="http://www.w3.org/2000/svg" xmlns:xlink="http://www.w3.org/1999/xlink">
    <!-- Generator: Sketch 52.4 (67378) - http://www.bohemiancoding.com/sketch -->
    <title>svg/black/aeur</title>
    <desc>Created with Sketch.</desc>
    <defs>
        <circle id="path-1" cx="16" cy="16" r="16"></circle>
        <linearGradient x1="50%" y1="1.71527276%" x2="50%" y2="66%" id="linearGradient-3">
            <stop stop-color="#000000" stop-opacity="0" offset="0%"></stop>
            <stop stop-color="#000000" stop-opacity="0.17" offset="3%"></stop>
            <stop stop-color="#000000" stop-opacity="0.34" offset="7%"></stop>
            <stop stop-color="#000000" stop-opacity="0.5" offset="11%"></stop>
            <stop stop-color="#000000" stop-opacity="0.63" offset="15%"></stop>
            <stop stop-color="#000000" stop-opacity="0.75" offset="19%"></stop>
            <stop stop-color="#000000" stop-opacity="0.84" offset="25%"></stop>
            <stop stop-color="#000000" stop-opacity="0.91" offset="30%"></stop>
            <stop stop-color="#000000" stop-opacity="0.96" offset="37%"></stop>
            <stop stop-color="#000000" stop-opacity="0.99" offset="47%"></stop>
            <stop stop-color="#000000" offset="100%"></stop>
        </linearGradient>
    </defs>
    <g id="black/aeur" stroke="none" stroke-width="1" fill="none" fill-rule="evenodd">
        <path d="M6.54349706,28.9077128 C2.57576215,25.9959363 0,21.2987689 0,16 C0,7.163444 7.163444,0 16,0 C24.836556,0 32,7.163444 32,16 C32,21.2420005 29.4791331,25.895221 25.5835472,28.8135135 C25.8209471,27.961195 25.9483923,27.0626921 25.9495385,26.134433 C25.9495385,24.3098806 25.4609063,22.6000426 24.6080015,21.1299194 C25.458979,19.6619618 25.9472899,17.9554558 25.9495385,16.134433 C25.9495385,10.639826 21.5181218,6.18556701 16.0516923,6.18556701 C10.5852628,6.18556701 6.15384615,10.639826 6.15384615,16.134433 C6.15384615,17.9571185 6.64147882,19.6653242 7.49276614,21.134433 C6.64147882,22.6035418 6.15384615,24.3117475 6.15384615,26.134433 C6.15384615,27.0968965 6.28981452,28.0274392 6.54349706,28.9077128 Z M16.0193788,16.1856189 C16.0156912,16.1832664 16.0122226,16.1804874 16.0090483,16.1772968 C15.9918005,16.15996 15.9866408,16.1338869 15.9959753,16.1112353 C16.0053098,16.0885837 16.0273001,16.0738144 16.0516923,16.0738144 C16.0835236,16.0771503 16.1086812,16.1024376 16.112,16.134433 C16.112,16.1554175 16.1012365,16.1746335 16.0840051,16.1856189 C16.0732382,16.1855843 16.0624673,16.185567 16.0516923,16.185567 C16.0409171,16.185567 16.0301459,16.1855843 16.0193788,16.1856189 Z M16.0516923,26.0738144 C16.0835236,26.0771503 16.1086812,26.1024376 16.112,26.134433 C16.112,26.1589509 16.0973065,26.1810546 16.0747711,26.1904372 C16.0522356,26.1998198 16.0262962,26.1946336 16.0090483,26.1772968 C15.9918005,26.15996 15.9866408,26.1338869 15.9959753,26.1112353 C16.0053098,26.0885837 16.0273001,26.0738144 16.0516923,26.0738144 Z M16.019384,26.0832471 C16.0288467,26.0772119 16.0399932,26.0738144 16.0516923,26.0738144 C16.0618544,26.0748794 16.0713364,26.0781817 16.0796447,26.0832253 C16.0703303,26.0832628 16.0610128,26.0832873 16.0516923,26.083299 C16.0409188,26.083299 16.0301494,26.0832817 16.019384,26.0832471 Z" id="Combined-Shape" fill="#000000" fill-rule="nonzero"></path>
        <mask id="mask-2" fill="white">
            <use xlink:href="#path-1"></use>
        </mask>
        <g id="Mask" fill-rule="nonzero"></g>
        <g id="augmint" mask="url(#mask-2)" fill="url(#linearGradient-3)" fill-rule="nonzero">
            <g transform="translate(6.000000, 6.000000)">
                <path d="M10.0516923,30.083299 C4.58526282,30.083299 0.153846154,25.6290399 0.153846154,20.134433 C0.153846154,14.639826 4.58526282,10.185567 10.0516923,10.185567 C15.5181218,10.185567 19.9495385,14.639826 19.9495385,20.134433 C19.9427572,25.6262141 15.5153105,30.0764828 10.0516923,30.083299 Z M10.0516923,20.0738144 C10.0273001,20.0738144 10.0053098,20.0885837 9.99597527,20.1112353 C9.98664078,20.1338869 9.99180045,20.15996 10.0090483,20.1772968 C10.0262962,20.1946336 10.0522356,20.1998198 10.0747711,20.1904372 C10.0973065,20.1810546 10.112,20.1589509 10.112,20.134433 C10.1086812,20.1024376 10.0835236,20.0771503 10.0516923,20.0738144 Z" id="Shape"></path>
                <path d="M10.019384,20.0832471 C10.0288467,20.0772119 10.0399932,20.0738144 10.0516923,20.0738144 C10.0618544,20.0748794 10.0713364,20.0781817 10.0796447,20.0832253 C10.0703303,20.0832628 10.0610128,20.0832873 10.0516923,20.083299 C10.0409188,20.083299 10.0301494,20.0832817 10.019384,20.0832471 Z M1.49276614,15.134433 C0.641478817,13.6653242 0.153846154,11.9571185 0.153846154,10.134433 C0.153846154,4.63982603 4.58526282,0.18556701 10.0516923,0.18556701 C15.5181218,0.18556701 19.9495385,4.63982603 19.9495385,10.134433 C19.9472899,11.9554558 19.458979,13.6619618 18.6080015,15.1299194 C16.8974614,12.1815195 13.7217378,10.1973042 10.0840051,10.1856189 C10.1012365,10.1746335 10.112,10.1554175 10.112,10.134433 C10.1086812,10.1024376 10.0835236,10.0771503 10.0516923,10.0738144 C10.0273001,10.0738144 10.0053098,10.0885837 9.99597527,10.1112353 C9.98664078,10.1338869 9.99180045,10.15996 10.0090483,10.1772968 C10.0122226,10.1804874 10.0156912,10.1832664 10.0193788,10.1856189 C6.37979042,10.1973105 3.20268274,12.183545 1.49276614,15.134433 Z" id="Combined-Shape"></path>
            </g>
        </g>
    </g>
</svg>